<?xml version="1.0" encoding="UTF-8"?>
<svg id="Layer_1" xmlns="http://www.w3.org/2000/svg" width="831.7" height="247" version="1.1" viewBox="0 0 831.7 247">
  <!-- Generator: Adobe Illustrator 29.7.1, SVG Export Plug-In . SVG Version: 2.1.1 Build 8)  -->
  <path d="M96.7,156.9c-7.1,0-13.3-7.2-13.4-15.2,0-8.1,6.5-15.7,13.4-15.6,7.5.1,13.8,7.3,13.7,15.6,0,8.1-6.6,15.3-13.8,15.2Z" fill="#fff"/>
  <path d="M96.5,172.8c-1-2-.3-3.6,1.1-5.2.9-.3,1.9-.7,3-.8,10.7-1.4,16.2-8.2,18.1-18,2-9.9,1.1-19.5-6.7-27.2-3-3-6.7-4.8-11-4.9-3,0-4.9-1.4-4.8-4.4,0-3,2.4-3.7,5-3.8,5.6-.3,10.4,1.7,14.6,5.2,16.4,13.5,15.5,44.1-1.6,56.7-3.9,2.9-8.2,4.6-13.1,4.4-1.8,0-3.7,0-4.6-1.9Z" fill="#fff"/>
  <path d="M120.8,184.3c-5.7,4.1-12.1,6.2-19.2,5.9-2.9-.1-5.4-.6-5.4-4,0-3.3,2.3-4.5,5.2-4.6,6.1-.2,11.6-1.8,16.5-5.4,9.9-7.1,14.4-17.2,15.6-28.9.9-8.4.4-16.7-3.2-24.6-5.6-12.4-14.8-20.1-28.6-21.9-.7,0-1.4-.2-2.1-.4-2.6-.6-3.7-2.5-3.6-4.9.1-2.5,2.2-3,4.1-3.1,6.5-.3,12.6,1.4,18.2,4.7,13,7.5,19.9,19.3,22.6,33.8.7,3.5.8,7,.8,10.6-.3,17.5-6.2,32.4-21,42.9Z" fill="#fff"/>
  <path d="M96.7,156.9c-7.1,0-13.3-7.2-13.4-15.2,0-8.1,6.5-15.7,13.4-15.6,7.5.1,13.8,7.3,13.7,15.6,0,8.1-6.6,15.3-13.8,15.2Z" fill="#fff"/>
  <path d="M96.5,172.8c-1-2-.3-3.6,1.1-5.2.9-.3,1.9-.7,3-.8,10.7-1.4,16.2-8.2,18.1-18,2-9.9,1.1-19.5-6.7-27.2-3-3-6.7-4.8-11-4.9-3,0-4.9-1.4-4.8-4.4,0-3,2.4-3.7,5-3.8,5.6-.3,10.4,1.7,14.6,5.2,16.4,13.5,15.5,44.1-1.6,56.7-3.9,2.9-8.2,4.6-13.1,4.4-1.8,0-3.7,0-4.6-1.9Z" fill="#fff"/>
  <path d="M141.7,141.4c-.3,17.6-6.2,32.4-20.9,42.9-5.7,4.1-12.1,6.2-19.2,5.9-2.9-.1-5.4-.6-5.4-4,0-3.3,2.3-4.5,5.2-4.6,6.1-.2,11.6-1.8,16.5-5.4,9.9-7.1,14.4-17.2,15.6-28.9.9-8.4.4-16.7-3.2-24.6-5.6-12.4-14.8-20.1-28.6-21.9-.7,0-1.4-.2-2.1-.4-2.6-.6-3.7-2.5-3.6-4.9.1-2.5,2.2-3,4.1-3.1,6.5-.3,12.6,1.4,18.2,4.7,13,7.5,19.9,19.3,22.6,33.8.7,3.5.8,7,.8,10.6Z" fill="#fff"/>
  <g>
    <path d="M706.5,8.2h-50.9c-4,0-5.5,1.3-5.6,4.7-.1,4.2,1.2,5.8,5.3,6.1,2.1.1,4.1,0,6.7,0v19.2c0,4.7.9,5.6,5.4,5.6s9,0,13.6,0,9.1,0,13.6,0,5.4-.9,5.4-5.6v-19.2c2.5,0,4.6,0,6.7,0,4.1-.2,5.5-1.8,5.3-6.1,0-3.4-1.6-4.7-5.6-4.7Z" fill="#fff"/>
    <path d="M681,47.8h-10.9c-.1,2.5,0,4.8,2.2,6.6,1.7,1.5,3.5,3,4.9,4.1v9h7.6v-9c1.4-1.2,3.1-2.6,4.9-4.1,2.1-1.9,2.4-4.2,2.2-6.6h-10.9Z" fill="#fff"/>
  </g>
  <path d="M141.7,141.4c-.3,17.6-6.2,32.4-20.9,42.9-5.7,4.1-12.1,6.2-19.2,5.9-2.9-.1-5.4-.6-5.4-4,0-3.3,2.3-4.5,5.2-4.6,6.1-.2,11.6-1.8,16.5-5.4,9.9-7.1,14.4-17.2,15.6-28.9.9-8.4.4-16.7-3.2-24.6-5.6-12.4-14.8-20.1-28.6-21.9-.7,0-1.4-.2-2.1-.4-2.6-.6-3.7-2.5-3.6-4.9.1-2.5,2.2-3,4.1-3.1,6.5-.3,12.6,1.4,18.2,4.7,13,7.5,19.9,19.3,22.6,33.8.7,3.5.8,7,.8,10.6Z" fill="#fff"/>
  <path d="M114.3,170.3c-3.9,2.9-8.2,4.6-13.1,4.4-1.8,0-3.7,0-4.6-1.9-1-2-.3-3.6,1.1-5.2.9-.3,1.9-.7,3-.8,10.7-1.4,16.2-8.2,18.1-18,2-9.9,1.1-19.5-6.7-27.2-3-3-6.7-4.8-11-4.9-3,0-4.9-1.4-4.8-4.4,0-3,2.4-3.7,5-3.8,5.6-.3,10.4,1.7,14.6,5.2,16.4,13.5,15.5,44.1-1.6,56.7Z" fill="#fff"/>
  <path d="M110.5,141.7c0,8.1-6.6,15.3-13.8,15.2-7.1,0-13.3-7.2-13.4-15.2,0-8.1,6.5-15.7,13.4-15.6,7.4.1,13.8,7.3,13.7,15.6Z" fill="#fff"/>
  <path d="M253.6,146.1c0,25.2-15,42.5-35.9,42.5s-17.1-3.3-23.3-9.6h-.8v38.3c.1,1.5-.8,2.4-2.2,2.4h-9c-1.5,0-2.4-.9-2.4-2.4l.6-107.9c0-1.5.9-2.4,2.4-2.4h8c1.5,0,2.4.9,2.4,2.4v9.2h1c5.9-9,15.6-13.4,25.7-13.4,20,0,33.5,17.1,33.5,41ZM192.8,142.3v10.1c1.5,16.4,11.6,24.5,24,24.5s23.6-11.4,23.6-29.7-9.6-30.5-23.7-30.5c-12.3,0-22.5,9.2-23.9,25.7Z" fill="#fff"/>
  <path d="M332.8,146.2c-.1,1.6-.9,2.4-2.5,2.4h-56.1c.1,17.6,9.8,28.2,24.8,28.2s14.9-3.4,19.2-10.7c.6-1.2,1.5-1.6,2.9-1.6h7.7c1.8,0,2.5,1.2,2,2.9-6,13.7-17.9,21.2-32.7,21.2-21.8,0-36.9-16.7-36.9-41.3s15.5-42,37.8-42c23.1,0,34.8,18.2,34.1,41ZM274.8,138.3h44.6c-.5-11.7-8.1-21.5-21.8-21.5s-20.7,9.5-22.8,21.5Z" fill="#fff"/>
  <path d="M409.6,134.1v50.1c0,1.5-.9,2.4-2.4,2.4h-9c-1.5,0-2.4-.9-2.4-2.4v-46.8c0-13.2-6.2-19.7-16.2-19.7s-19.7,8-21.3,24.2v42.3c.1,1.5-.8,2.4-2.2,2.4h-9c-1.5,0-2.4-.9-2.4-2.4l.6-74.9c0-1.5.9-2.4,2.4-2.4h8c1.5,0,2.4.9,2.4,2.4v9.5c.1,0,1.2.2,1.2.2,6-8.6,14.1-13.8,24.9-13.8,15.3,0,25.5,10.4,25.5,29Z" fill="#fff"/>
  <path d="M498,87.1c0,1.5-.9,2.4-2.4,2.4h-32.7l.5,94.7c0,1.5-.9,2.4-2.4,2.4h-9.3c-1.5,0-2.4-.9-2.4-2.4l.5-94.7h-32.9c-1.5,0-2.4-.9-2.4-2.4v-7.2c0-1.5.9-2.4,2.4-2.4h78.8c1.5,0,2.4.9,2.4,2.4v7.2h0Z" fill="#fff"/>
  <path d="M545.6,132.3l.5,51.9c0,1.5-.9,2.4-2.4,2.4h-8.6c-1.5,0-2.4-.9-2.4-2.4l.2-10.2h-1c-5.4,8.3-15.2,14-27.6,14s-24.3-7.7-24.3-22.1,12.5-23.9,41.9-26.7c7.5-.8,11.1-3,11.1-8.9s-6.5-14-18.2-14-15.8,4.2-18.2,11.3c-.5,1.4-1.4,1.9-2.7,1.9h-7.8c-1.6,0-2.5-.9-2.2-2.2,3.5-13.4,14.4-22.2,31.8-22.2,18.8,0,30,10.2,30,27.2ZM532,146.5c-2.5,1.2-6.3,2.2-11.6,2.7-18.5,2.1-27.8,6.5-27.8,15.8s5.4,11.6,14.3,11.6c14.9,0,24.9-10.5,25.8-19.2l-.2-10.5-.6-.3Z" fill="#fff"/>
  <path d="M630.8,109.3c0-1.5-.9-2.4-2.4-2.4h-8.1c-1.5,0-2.4.9-2.4,2.4l-.2,9.2-.9.2c-5.7-8.9-15.2-13.5-25.5-13.5-20,0-33.5,17.4-33.5,40.7s15.2,40.8,36.9,40.8,16.2-3.1,21.9-9.9h.8c0,28.8-23.3,52.1-52.1,52.1-118.8,0-397.8,0-450.8,0-4.4,0-8.8-.6-13.3-.9,3.9-.5,7.6-1,11.3-1.9,18-4.2,30.4-15.5,39.4-31,9.8-16.9,13.5-35.2,13.3-54.6-.2-17.9-3.6-34.9-12.4-50.6-12.5-22.5-31.1-35.2-57.7-34.5-7.8.2-15.6,0-23.4,0-5.6,0-11,.9-16.3,2.7-15.8,5.3-26.5,16.5-34.3,30.6-11.2,20.1-14.5,41.8-12.4,64.6,1.5,15.7,5.8,30.5,14.2,44,9.3,14.9,21.9,25.6,39.5,29.3,7.2,1.5,14.2,3.1,20.4,7,1.2.7,2.6,1,4,1.5,11.4,4.1,23.5,3.7,35.3,3.7,49,0,318.8.2,445.4.2,35.1,0,63.6-28.5,63.4-63.7l-.2-65.9ZM32.6,96.5c-1.9,5.8-3.9,11.6-5.5,17.5-1.7,6-2.6,12.2-3,18.5-.3,6.1-.4,12.3,0,18.4.4,6.2,1.7,12.3,3.1,18.4,1.3,5.8,4.7,11.2,5.2,17.2-.6.1-1.2.3-1.8.4-9.5-17.8-11.2-37.1-9.7-56.8.9-11.9,3-23.9,9.7-34.2,1.2-1.6,2.7-.8,1.9.7ZM44.8,183.7c-3.9-8.3-6.5-16.9-7.6-26-2.4-19.1-1.2-37.8,6.1-55.8.8-1.8,1.5-3.8,3.1-5.1.7-.6,1.6-1.2,2.9,0-12.3,29.7-12.6,59.7.3,89.8-3.1.7-4-1.1-4.9-2.9ZM70.8,199.6c-11.1-13-15.9-28.6-17.6-45.4s0-33.2,5.8-49.1c4.8-13.4,13.2-24.1,24.9-32.3,13.8-9.6,32.8-7.9,46,3.9,13.8,12.4,20.5,28.5,23.6,46.3,1.1,6.2,1.7,12.4,1.5,18.7-.2,20.6-4.6,40-17.7,56.6-8.1,10.3-18.6,17.4-31.9,18.2-14.5.9-25.6-6.5-34.6-17ZM594.7,174.9c-14.9,0-23.7-10.2-23.7-27.9s9.8-30.3,23.9-30.3,22.5,9.3,23.7,25.8v10.1c-1.5,15.2-11.6,22.4-23.9,22.4Z" fill="#fff"/>
  <g>
    <path d="M703.7,128.3c8.8-5.2,13.8-13.6,13.8-24,0-15.6-12-31.3-35-31.3s-34.5,14.7-38.6,28.6c-.4,1.6-.2,3,.7,4.1.9,1.1,2.2,1.8,3.9,1.8h7.7c2.5,0,4.3-1.3,5.1-3.6,3.3-9.1,10.7-14.1,20.8-14.1s18,6.2,18,15.8-8.2,15.5-24.4,15.5h-4.7c-2.9,0-4.9,2-4.9,4.9v6.3c0,2.9,2,4.9,4.9,4.9h4.7c27.4,0,27.4,13.2,27.4,17.6,0,12-8.1,19.1-21.7,19.1s-19.3-5.2-21.5-14.1c-1.1-3.2-3.3-3.8-5.1-3.8h-8.6c-2.1,0-3.2.9-3.8,1.6-.6.7-1.2,2-.9,3.9,2.6,14.5,16.2,29.1,40.5,29.1s38.8-17.7,38.8-35.2c0-12.3-6-21.8-17-27.1Z" fill="#fff"/>
    <path d="M769.1,74.9h-36.2c-2.9,0-4.9,2-4.9,4.9l-.6,104.4c0,2.9,2,4.9,4.9,4.9h36.5c33.2,0,54.6-23,54.6-58.7s-20.3-55.5-54.3-55.5ZM746.1,91.7h22c23.6,0,37.1,14.7,37.1,40.3s-13.9,40.3-37.3,40.3h-21.4l-.4-80.6Z" fill="#fff"/>
  </g>
</svg>